<svg width="511" height="622" viewBox="0 0 511 622" fill="none" xmlns="http://www.w3.org/2000/svg">
<path d="M216.759 392.568L318.511 609.071L361.97 521.11L458.705 541.042L353.222 332.503L216.759 392.568Z" fill="#ED572F"/>
<path d="M152.018 346.003L50.9269 546.402L154.61 526.035L194.844 610.273L309.992 397.015L152.018 346.003Z" fill="#ED572F"/>
<path d="M0.394531 252.815C0.394531 241.146 28.7974 231.666 30.3921 220.454C32.0257 208.961 7.4635 191.886 10.6626 180.976C13.9103 169.881 43.8399 168.782 48.5851 158.407C53.3303 148.032 34.651 124.578 40.8061 114.971C46.9613 105.364 76.0546 112.677 83.5905 104.023C91.1264 95.3684 79.7012 67.6752 88.365 60.1491C97.0288 52.6229 122.797 67.86 132.472 61.6368C142.147 55.4136 138.899 25.659 149.381 20.875C159.864 16.0909 180.176 37.9984 191.271 34.741C202.181 31.5419 207.558 2.08872 219.042 0.455133C230.253 -1.14928 243.663 25.6007 255.312 25.6007C266.961 25.6007 280.379 -1.14928 291.581 0.455133C303.075 2.08872 308.442 31.5711 319.352 34.741C330.447 37.9984 350.876 16.1298 361.242 20.875C371.607 25.6201 368.544 55.4428 378.161 61.6368C387.778 67.8308 413.604 52.6423 422.258 60.1588C430.912 67.6752 419.516 95.349 427.042 104.023C434.568 112.696 463.565 105.296 469.827 114.971C476.089 124.647 457.303 147.925 462.048 158.407C466.793 168.889 496.713 169.881 499.97 180.976C503.169 191.886 478.578 208.961 480.241 220.454C481.845 231.666 510.238 241.166 510.238 252.815C510.238 264.464 481.845 273.964 480.241 285.175C478.607 296.659 503.169 313.744 499.97 324.644C496.722 335.749 466.793 336.847 462.048 347.223C457.303 357.598 475.972 381.051 469.827 390.658C463.681 400.265 434.588 392.953 427.042 401.607C419.497 410.261 430.932 437.955 422.258 445.471C413.584 452.987 387.826 437.77 378.151 443.993C368.476 450.216 371.724 479.971 361.242 484.755C350.76 489.539 330.447 467.631 319.352 470.889C308.442 474.078 303.075 503.541 291.581 505.175C280.389 506.779 266.97 480.049 255.302 480.049C243.633 480.049 230.244 506.799 219.032 505.194C207.549 503.561 202.171 474.078 191.261 470.908C180.166 467.651 159.747 489.519 149.372 484.774C138.996 480.029 142.069 450.206 132.462 444.012C122.855 437.818 97.0094 452.997 88.3553 445.49C79.7012 437.984 91.0972 410.3 83.571 401.627C76.0449 392.953 47.0487 400.353 40.7867 390.678C34.5246 381.003 53.3205 357.724 48.5656 347.232C43.8107 336.74 13.8909 335.768 10.6431 324.663C7.44403 313.763 32.0354 296.679 30.3726 285.195C28.7974 273.964 0.394531 264.464 0.394531 252.815Z" fill="#FC9928"/>
<path d="M255.318 463.704C371.783 463.704 466.197 369.29 466.197 252.824C466.197 136.359 371.783 41.9443 255.318 41.9443C138.852 41.9443 44.4375 136.359 44.4375 252.824C44.4375 369.29 138.852 463.704 255.318 463.704Z" fill="#FFD733"/>
<path d="M255.317 407.255C170.169 407.255 100.887 337.972 100.887 252.825C100.887 167.677 170.189 98.3945 255.317 98.3945C340.444 98.3945 409.747 167.667 409.747 252.825C409.747 337.982 340.494 407.255 255.317 407.255ZM255.317 105.195C173.914 105.195 107.687 171.422 107.687 252.825C107.687 334.227 173.934 400.455 255.317 400.455C336.699 400.455 402.947 334.227 402.947 252.825C402.947 171.422 336.749 105.195 255.317 105.195Z" fill="#FC9928" stroke="#FC9928" stroke-width="2"/>
<path d="M283.59 179.805V325.26H248.505V212.618H247.653L215.124 232.504V202.106L250.991 179.805H283.59Z" fill="#ED572F"/>
</svg>
