<svg width="511" height="622" viewBox="0 0 511 622" fill="none" xmlns="http://www.w3.org/2000/svg">
<path d="M216.856 392.748L318.608 609.251L362.068 521.29L458.803 541.222L353.319 332.683L216.856 392.748Z" fill="#ED572F"/>
<path d="M152.112 346.182L51.0207 546.582L154.704 526.215L194.937 610.452L310.086 397.194L152.112 346.182Z" fill="#ED572F"/>
<path d="M0.492188 252.995C0.492188 241.326 28.895 231.846 30.4897 220.634C32.1233 209.141 7.56115 192.066 10.7603 181.156C14.008 170.061 43.9376 168.962 48.6828 158.587C53.4279 148.212 34.7487 124.758 40.9038 115.151C47.0589 105.544 76.1523 112.856 83.6882 104.202C91.2241 95.5481 79.7988 67.8549 88.4627 60.3288C97.1265 52.8026 122.894 68.0397 132.569 61.8165C142.244 55.5933 138.997 25.8387 149.479 21.0546C159.961 16.2706 180.274 38.1781 191.369 34.9207C202.279 31.7216 207.656 2.26841 219.14 0.634821C230.351 -0.969594 243.76 25.7804 255.409 25.7804C267.058 25.7804 280.477 -0.969594 291.679 0.634821C303.172 2.26841 308.54 31.7507 319.45 34.9207C330.544 38.1781 350.974 16.3095 361.339 21.0546C371.705 25.7998 368.642 55.6225 378.259 61.8165C387.876 68.0105 413.702 52.822 422.356 60.3385C431.01 67.8549 419.614 95.5286 427.14 104.202C434.666 112.876 463.662 105.476 469.924 115.151C476.186 124.826 457.4 148.105 462.145 158.587C466.891 169.069 496.81 170.061 500.068 181.156C503.267 192.066 478.676 209.141 480.338 220.634C481.943 231.846 510.336 241.346 510.336 252.995C510.336 264.644 481.943 274.144 480.338 285.355C478.705 296.839 503.267 313.923 500.068 324.824C496.82 335.928 466.891 337.027 462.145 347.402C457.4 357.777 476.07 381.231 469.924 390.838C463.779 400.445 434.686 393.133 427.14 401.787C419.594 410.441 431.029 438.134 422.356 445.651C413.682 453.167 387.924 437.949 378.249 444.173C368.574 450.396 371.822 480.15 361.339 484.935C350.857 489.719 330.544 467.811 319.45 471.069C308.54 474.258 303.172 503.721 291.679 505.354C280.487 506.959 267.068 480.228 255.399 480.228C243.731 480.228 230.341 506.978 219.13 505.374C207.646 503.74 202.269 474.258 191.359 471.088C180.264 467.83 159.845 489.699 149.469 484.954C139.094 480.209 142.167 450.386 132.56 444.192C122.953 437.998 97.107 453.177 88.4529 445.67C79.7988 438.163 91.1949 410.48 83.6687 401.806C76.1425 393.133 47.1464 400.533 40.8843 390.858C34.6223 381.182 53.4182 357.904 48.6633 347.412C43.9084 336.92 13.9885 335.948 10.7408 324.843C7.54169 313.943 32.133 296.858 30.4703 285.375C28.895 274.144 0.492188 264.644 0.492188 252.995Z" fill="#FC9928"/>
<path d="M255.411 463.884C371.877 463.884 466.291 369.47 466.291 253.004C466.291 136.538 371.877 42.124 255.411 42.124C138.945 42.124 44.5312 136.538 44.5312 253.004C44.5312 369.47 138.945 463.884 255.411 463.884Z" fill="#FFD733"/>
<path d="M255.414 407.434C170.267 407.434 100.984 338.152 100.984 253.004C100.984 167.857 170.287 98.5742 255.414 98.5742C340.542 98.5742 409.844 167.847 409.844 253.004C409.844 338.162 340.592 407.434 255.414 407.434ZM255.414 105.374C174.012 105.374 107.784 171.602 107.784 253.004C107.784 334.407 174.032 400.634 255.414 400.634C336.797 400.634 403.044 334.407 403.044 253.004C403.044 171.602 336.847 105.374 255.414 105.374Z" fill="#FC9928" stroke="#FC9928" stroke-width="2"/>
<path d="M202.363 325.439V300.155L255.417 253.706C259.394 250.108 262.78 246.817 265.573 243.834C268.367 240.804 270.498 237.774 271.965 234.743C273.433 231.666 274.167 228.328 274.167 224.729C274.167 220.705 273.291 217.272 271.539 214.431C269.787 211.543 267.373 209.317 264.295 207.755C261.217 206.192 257.69 205.411 253.713 205.411C249.688 205.411 246.16 206.24 243.13 207.897C240.1 209.507 237.732 211.85 236.028 214.928C234.371 218.006 233.542 221.746 233.542 226.15H200.232C200.232 216.254 202.458 207.707 206.909 200.51C211.359 193.314 217.609 187.774 225.659 183.891C233.755 179.961 243.154 177.996 253.855 177.996C264.887 177.996 274.475 179.843 282.619 183.536C290.763 187.229 297.06 192.39 301.511 199.019C306.009 205.6 308.258 213.247 308.258 221.959C308.258 227.499 307.145 232.992 304.92 238.437C302.695 243.882 298.694 249.895 292.917 256.476C287.188 263.058 279.044 270.941 268.485 280.127L251.085 296.178V297.101H310.034V325.439H202.363Z" fill="#ED572F"/>
</svg>
