<svg width="514" height="491" viewBox="0 0 514 491" fill="none" xmlns="http://www.w3.org/2000/svg">
<path d="M274.47 11.316L339.119 142.291C340.458 145.056 342.46 147.447 344.947 149.251C347.434 151.055 350.328 152.216 353.372 152.631L497.761 173.638C501.258 174.142 504.543 175.615 507.245 177.891C509.947 180.167 511.957 183.155 513.048 186.515C514.139 189.875 514.267 193.473 513.417 196.902C512.568 200.331 510.775 203.453 508.241 205.916L403.675 307.873C401.473 310.015 399.826 312.661 398.877 315.583C397.927 318.505 397.704 321.613 398.226 324.641L422.912 468.611C423.518 472.092 423.137 475.673 421.812 478.948C420.487 482.224 418.271 485.062 415.415 487.142C412.559 489.223 409.178 490.461 405.654 490.717C402.13 490.974 398.605 490.237 395.478 488.592L266.273 420.823C263.557 419.399 260.536 418.655 257.469 418.655C254.403 418.655 251.382 419.399 248.667 420.823L119.368 488.825C116.241 490.47 112.716 491.206 109.192 490.95C105.668 490.694 102.286 489.455 99.4305 487.375C96.5745 485.295 94.3584 482.456 93.0335 479.181C91.7085 475.906 91.3277 472.325 91.9342 468.844L116.62 324.874C117.142 321.846 116.919 318.737 115.969 315.816C115.019 312.894 113.373 310.248 111.171 308.106L6.37187 205.916C3.83845 203.453 2.0452 200.331 1.19561 196.902C0.346026 193.473 0.473981 189.875 1.5649 186.515C2.65581 183.155 4.66616 180.167 7.368 177.891C10.0698 175.615 13.3552 174.142 16.8517 173.638L161.241 152.631C164.285 152.216 167.179 151.055 169.666 149.251C172.153 147.447 174.155 145.056 175.494 142.291L240.143 11.316C241.672 8.05505 244.098 5.29713 247.138 3.36519C250.178 1.43325 253.705 0.407227 257.307 0.407227C260.908 0.407227 264.435 1.43325 267.475 3.36519C270.515 5.29713 272.941 8.05505 274.47 11.316Z" fill="url(#paint0_radial_883_230)"/>
<g style="mix-blend-mode:darken">
<path d="M497.801 173.638L353.412 152.632C350.368 152.217 347.474 151.056 344.987 149.252C342.5 147.448 340.498 145.057 339.159 142.292L274.37 11.3168C272.8 8.15649 270.379 5.49709 267.38 3.638C264.381 1.77891 260.922 0.793945 257.393 0.793945C253.864 0.793945 250.405 1.77891 247.406 3.638C244.406 5.49709 241.986 8.15649 240.416 11.3168L175.766 142.292C174.408 145.042 172.4 147.421 169.917 149.222C167.434 151.023 164.55 152.194 161.514 152.632L68.3594 166.186C90.3904 266.467 208.65 343.179 351.269 343.179C367.808 343.172 384.33 342.114 400.734 340.012L398.126 324.735C397.604 321.707 397.827 318.599 398.777 315.677C399.726 312.755 401.373 310.109 403.575 307.967L508.141 206.009C510.699 203.56 512.519 200.442 513.391 197.01C514.264 193.578 514.155 189.969 513.078 186.596C512 183.222 509.997 180.219 507.296 177.928C504.595 175.637 501.305 174.151 497.801 173.638Z" fill="url(#paint1_radial_883_230)"/>
</g>
<g style="mix-blend-mode:overlay" opacity="0.7">
<path d="M150.393 175.222C156.311 187.503 163.146 199.32 170.84 210.574C181.168 222.322 192.312 233.326 204.189 243.504C222.111 255.906 241.023 266.811 260.734 276.108C282.705 284.236 305.331 290.469 328.364 294.739C347.064 296.354 365.863 296.478 384.583 295.112C398.242 292.432 411.691 288.774 424.826 284.166L429.064 282.862L508.246 205.777C510.779 203.315 512.572 200.192 513.422 196.763C514.271 193.334 514.143 189.736 513.052 186.376C511.961 183.016 509.951 180.028 507.249 177.752C504.548 175.477 501.262 174.003 497.766 173.499L353.376 152.492C350.332 152.077 347.438 150.916 344.951 149.112C342.465 147.308 340.463 144.917 339.124 142.152L274.102 11.3168C272.532 8.15649 270.111 5.49709 267.112 3.638C264.112 1.77891 260.653 0.793945 257.124 0.793945C253.596 0.793945 250.137 1.77891 247.137 3.638C244.138 5.49709 241.717 8.15649 240.147 11.3168L175.498 142.292C174.139 145.042 172.132 147.421 169.649 149.222C167.166 151.023 164.282 152.194 161.245 152.632L137.305 156.125C142.507 161.873 146.91 168.296 150.393 175.222Z" fill="url(#paint2_radial_883_230)" fill-opacity="0.3" style="mix-blend-mode:screen"/>
</g>
<defs>
<radialGradient id="paint0_radial_883_230" cx="0" cy="0" r="1" gradientUnits="userSpaceOnUse" gradientTransform="translate(302.649 190.545) scale(283.143 283.143)">
<stop stop-color="#FFC760"/>
<stop offset="0.51" stop-color="#FFA631"/>
<stop offset="0.843" stop-color="#FF8400"/>
</radialGradient>
<radialGradient id="paint1_radial_883_230" cx="0" cy="0" r="1" gradientUnits="userSpaceOnUse" gradientTransform="translate(263.005 80.3442) scale(412.72 412.721)">
<stop offset="0.4" stop-color="white" stop-opacity="0"/>
<stop offset="0.46" stop-color="white" stop-opacity="0.03"/>
<stop offset="0.53" stop-color="white" stop-opacity="0.1"/>
<stop offset="0.62" stop-color="white" stop-opacity="0.22"/>
<stop offset="0.72" stop-color="white" stop-opacity="0.39"/>
<stop offset="0.83" stop-color="white" stop-opacity="0.61"/>
<stop offset="0.95" stop-color="white" stop-opacity="0.87"/>
<stop offset="1" stop-color="white"/>
</radialGradient>
<radialGradient id="paint2_radial_883_230" cx="0" cy="0" r="1" gradientUnits="userSpaceOnUse" gradientTransform="translate(305.892 122.996) rotate(-28.4981) scale(127.039 218.506)">
<stop offset="0.01" stop-color="white" stop-opacity="0.99"/>
<stop offset="0.13" stop-color="white" stop-opacity="0.76"/>
<stop offset="0.25" stop-color="white" stop-opacity="0.56"/>
<stop offset="0.37" stop-color="white" stop-opacity="0.39"/>
<stop offset="0.5" stop-color="white" stop-opacity="0.25"/>
<stop offset="0.62" stop-color="white" stop-opacity="0.14"/>
<stop offset="0.74" stop-color="white" stop-opacity="0.06"/>
<stop offset="0.87" stop-color="white" stop-opacity="0.02"/>
<stop offset="1" stop-color="white" stop-opacity="0"/>
</radialGradient>
</defs>
</svg>
