<svg width="836" height="167" viewBox="0 0 836 167" fill="none" xmlns="http://www.w3.org/2000/svg">
<path fill-rule="evenodd" clip-rule="evenodd" d="M463.935 81.8272V84.1446H408.198C392.656 84.1446 384.885 90.2185 384.885 102.366C384.885 114.291 392.388 120.253 407.394 120.253H463.935V141.891H409.471C380.62 141.891 366.194 128.448 366.194 101.562C366.194 88.2855 369.846 78.3879 377.148 71.8696C369.846 65.1484 366.194 55.0247 366.194 41.4984C366.194 15.4165 380.285 2.37549 408.466 2.37549H463.935V24.0807H408.198C392.656 24.0807 384.885 30.1546 384.885 42.3023C384.885 54.2268 392.388 60.189 407.394 60.189H463.935V62.4395V81.8272Z" fill="#5C67F7"/>
<path fill-rule="evenodd" clip-rule="evenodd" d="M507.138 81.8272V84.1446H451.401C435.859 84.1446 428.088 90.2185 428.088 102.366C428.088 114.291 435.591 120.253 450.597 120.253H507.138V141.891H452.674C423.823 141.891 409.397 128.448 409.397 101.562C409.397 88.2855 413.049 78.3879 420.351 71.8696C413.049 65.1483 409.397 55.0246 409.397 41.4984C409.397 15.4165 423.488 2.37549 451.669 2.37549H507.138V24.0807H451.401C435.859 24.0807 428.088 30.1546 428.088 42.3023C428.088 54.2268 435.591 60.189 450.597 60.189H507.138V62.4394V81.8272Z" fill="#9E5CF7"/>
<path d="M790.938 29.4912C804.138 29.4912 814.805 33.6912 822.938 42.0912C831.071 50.3579 835.138 61.9579 835.138 76.8912V141.891H807.138V80.6912C807.138 71.8912 804.938 65.1579 800.538 60.4912C796.138 55.6912 790.138 53.2912 782.538 53.2912C774.805 53.2912 768.671 55.6912 764.138 60.4912C759.738 65.1579 757.538 71.8912 757.538 80.6912V141.891H729.538V31.0912H757.538V44.8912C761.271 40.0912 766.005 36.3579 771.738 33.6912C777.605 30.8912 784.005 29.4912 790.938 29.4912Z" fill="black"/>
<path d="M680.538 48.2912C684.138 42.4245 688.805 37.8246 694.538 34.4912C700.405 31.1579 707.071 29.4912 714.538 29.4912V58.8912H707.138C698.338 58.8912 691.671 60.9579 687.138 65.0912C682.738 69.2245 680.538 76.4245 680.538 86.6912V141.891H652.538V31.0912H680.538V48.2912Z" fill="black"/>
<path d="M522.138 86.0913C522.138 74.8913 524.338 64.9579 528.738 56.2913C533.271 47.6246 539.338 40.9579 546.938 36.2913C554.671 31.6246 563.271 29.2913 572.738 29.2913C581.004 29.2913 588.204 30.9579 594.338 34.2913C600.604 37.6246 605.604 41.8246 609.338 46.8913V31.0913H637.538V141.891H609.338V125.691C605.738 130.891 600.738 135.225 594.338 138.691C588.071 142.025 580.804 143.691 572.538 143.691C563.204 143.691 554.671 141.291 546.938 136.491C539.338 131.691 533.271 124.958 528.738 116.291C524.338 107.491 522.138 97.4246 522.138 86.0913ZM609.338 86.4913C609.338 79.6913 608.004 73.8913 605.338 69.0913C602.671 64.1579 599.071 60.4246 594.538 57.8913C590.004 55.2246 585.138 53.8913 579.938 53.8913C574.738 53.8913 569.938 55.1579 565.538 57.6913C561.138 60.2246 557.538 63.9579 554.738 68.8913C552.071 73.6913 550.738 79.4246 550.738 86.0913C550.738 92.7579 552.071 98.6246 554.738 103.691C557.538 108.625 561.138 112.425 565.538 115.091C570.071 117.758 574.871 119.091 579.938 119.091C585.138 119.091 590.004 117.825 594.538 115.291C599.071 112.625 602.671 108.891 605.338 104.091C608.004 99.1579 609.338 93.2913 609.338 86.4913Z" fill="black"/>
<path d="M305.194 119.691H351.194V141.891H277.194V2.29126H305.194V119.691Z" fill="black"/>
<path d="M227.395 166.491L206.195 141.091C200.328 142.558 194.328 143.291 188.195 143.291C175.128 143.291 163.128 140.225 152.195 134.091C141.261 127.958 132.595 119.491 126.195 108.691C119.795 97.7579 116.595 85.4246 116.595 71.6913C116.595 58.0913 119.795 45.8913 126.195 35.0913C132.595 24.1579 141.261 15.6246 152.195 9.49125C163.128 3.35792 175.128 0.29126 188.195 0.29126C201.395 0.29126 213.395 3.35792 224.195 9.49125C235.128 15.6246 243.728 24.1579 249.995 35.0913C256.395 45.8913 259.595 58.0913 259.595 71.6913C259.595 84.0913 256.928 95.4246 251.595 105.691C246.395 115.825 239.261 124.091 230.195 130.491L262.195 166.491H227.395ZM145.395 71.6913C145.395 81.0246 147.195 89.2246 150.795 96.2913C154.395 103.358 159.395 108.825 165.795 112.691C172.328 116.425 179.795 118.291 188.195 118.291C196.595 118.291 203.995 116.425 210.395 112.691C216.795 108.825 221.795 103.358 225.395 96.2913C228.995 89.2246 230.795 81.0246 230.795 71.6913C230.795 62.3579 228.995 54.2246 225.395 47.2913C221.795 40.2246 216.795 34.8246 210.395 31.0913C203.995 27.3579 196.595 25.4912 188.195 25.4912C179.795 25.4912 172.328 27.3579 165.795 31.0913C159.395 34.8246 154.395 40.2246 150.795 47.2913C147.195 54.2246 145.395 62.3579 145.395 71.6913Z" fill="black"/>
<path d="M52.1945 143.291C42.4612 143.291 33.6612 141.625 25.7945 138.291C18.0612 134.958 11.9279 130.158 7.39453 123.891C2.8612 117.625 0.527864 110.225 0.394531 101.691H30.3945C30.7945 107.425 32.7945 111.958 36.3945 115.291C40.1279 118.625 45.1945 120.291 51.5945 120.291C58.1279 120.291 63.2612 118.758 66.9945 115.691C70.7279 112.491 72.5945 108.358 72.5945 103.291C72.5945 99.1579 71.3279 95.7579 68.7945 93.0913C66.2612 90.4246 63.0612 88.3579 59.1945 86.8913C55.4612 85.2913 50.2612 83.5579 43.5945 81.6912C34.5279 79.0246 27.1279 76.4246 21.3945 73.8913C15.7945 71.2246 10.9279 67.2913 6.79453 62.0913C2.79453 56.7579 0.794533 49.6913 0.794533 40.8913C0.794533 32.6246 2.8612 25.4246 6.99454 19.2913C11.1279 13.1579 16.9279 8.49125 24.3945 5.29125C31.8612 1.95792 40.3945 0.29126 49.9945 0.29126C64.3945 0.29126 76.0612 3.82459 84.9945 10.8913C94.0612 17.8246 99.0612 27.5579 99.9945 40.0913H69.1945C68.9279 35.2913 66.8612 31.3579 62.9945 28.2913C59.2612 25.0913 54.2612 23.4913 47.9945 23.4913C42.5279 23.4913 38.1279 24.8913 34.7945 27.6912C31.5945 30.4912 29.9945 34.5579 29.9945 39.8912C29.9945 43.6246 31.1945 46.7579 33.5945 49.2913C36.1279 51.6913 39.1945 53.6913 42.7945 55.2913C46.5279 56.7579 51.7279 58.4913 58.3945 60.4913C67.4612 63.1579 74.8612 65.8246 80.5945 68.4912C86.3279 71.1579 91.2612 75.1579 95.3945 80.4912C99.5279 85.8246 101.595 92.8246 101.595 101.491C101.595 108.958 99.6612 115.891 95.7945 122.291C91.9279 128.691 86.2612 133.825 78.7945 137.691C71.3279 141.425 62.4612 143.291 52.1945 143.291Z" fill="black"/>
</svg>
