<svg width="836" height="167" viewBox="0 0 836 167" fill="none" xmlns="http://www.w3.org/2000/svg">
<path fill-rule="evenodd" clip-rule="evenodd" d="M463.99 81.7276V84.045H408.254C392.712 84.045 384.941 90.1189 384.941 102.267C384.941 114.191 392.444 120.153 407.45 120.153H463.99V141.792H409.526C380.675 141.792 366.25 128.349 366.25 101.463C366.25 88.1859 369.901 78.2883 377.204 71.77C369.901 65.0488 366.25 54.925 366.25 41.3988C366.25 15.3169 380.341 2.27588 408.522 2.27588H463.99V23.9811H408.254C392.712 23.9811 384.941 30.0549 384.941 42.2027C384.941 54.1272 392.444 60.0894 407.45 60.0894H463.99V62.3398V81.7276Z" fill="#E9E7E7"/>
<path fill-rule="evenodd" clip-rule="evenodd" d="M507.193 81.7276V84.045H451.457C435.915 84.045 428.144 90.1189 428.144 102.267C428.144 114.191 435.647 120.153 450.653 120.153H507.193V141.791H452.73C423.879 141.791 409.453 128.349 409.453 101.463C409.453 88.1859 413.104 78.2883 420.407 71.7699C413.104 65.0487 409.453 54.925 409.453 41.3988C409.453 15.3169 423.544 2.27588 451.725 2.27588H507.193V23.9811H451.457C435.915 23.9811 428.144 30.0549 428.144 42.2027C428.144 54.1272 435.647 60.0894 450.653 60.0894H507.193V62.3398V81.7276Z" fill="white"/>
<path d="M790.994 29.3916C804.194 29.3916 814.86 33.5916 822.994 41.9916C831.127 50.2583 835.194 61.8583 835.194 76.7916V141.792H807.194V80.5916C807.194 71.7916 804.994 65.0583 800.594 60.3916C796.194 55.5916 790.194 53.1916 782.594 53.1916C774.86 53.1916 768.727 55.5916 764.194 60.3916C759.794 65.0583 757.594 71.7916 757.594 80.5916V141.792H729.594V30.9916H757.594V44.7916C761.327 39.9916 766.06 36.2583 771.794 33.5916C777.66 30.7916 784.06 29.3916 790.994 29.3916Z" fill="white"/>
<path d="M680.594 48.1916C684.194 42.3249 688.86 37.7249 694.594 34.3916C700.46 31.0583 707.127 29.3916 714.594 29.3916V58.7916H707.194C698.394 58.7916 691.727 60.8583 687.194 64.9916C682.794 69.1249 680.594 76.3249 680.594 86.5916V141.792H652.594V30.9916H680.594V48.1916Z" fill="white"/>
<path d="M522.191 85.9914C522.191 74.7914 524.391 64.8581 528.791 56.1914C533.325 47.5247 539.391 40.8581 546.991 36.1914C554.725 31.5247 563.325 29.1914 572.791 29.1914C581.058 29.1914 588.258 30.8581 594.391 34.1914C600.658 37.5247 605.658 41.7247 609.391 46.7914V30.9914H637.591V141.791H609.391V125.591C605.791 130.791 600.791 135.125 594.391 138.591C588.125 141.925 580.858 143.591 572.591 143.591C563.258 143.591 554.725 141.191 546.991 136.391C539.391 131.591 533.325 124.858 528.791 116.191C524.391 107.391 522.191 97.3247 522.191 85.9914ZM609.391 86.3914C609.391 79.5914 608.058 73.7914 605.391 68.9914C602.725 64.0581 599.125 60.3247 594.591 57.7914C590.058 55.1247 585.191 53.7914 579.991 53.7914C574.791 53.7914 569.991 55.0581 565.591 57.5914C561.191 60.1247 557.591 63.8581 554.791 68.7914C552.125 73.5914 550.791 79.3247 550.791 85.9914C550.791 92.6581 552.125 98.5247 554.791 103.591C557.591 108.525 561.191 112.325 565.591 114.991C570.125 117.658 574.925 118.991 579.991 118.991C585.191 118.991 590.058 117.725 594.591 115.191C599.125 112.525 602.725 108.791 605.391 103.991C608.058 99.0581 609.391 93.1914 609.391 86.3914Z" fill="white"/>
<path d="M305.249 119.591H351.249V141.791H277.249V2.19141H305.249V119.591Z" fill="white"/>
<path d="M227.449 166.391L206.249 140.991C200.383 142.458 194.383 143.191 188.249 143.191C175.183 143.191 163.183 140.125 152.249 133.991C141.316 127.858 132.649 119.391 126.249 108.591C119.849 97.6581 116.649 85.3247 116.649 71.5914C116.649 57.9914 119.849 45.7914 126.249 34.9914C132.649 24.0581 141.316 15.5247 152.249 9.3914C163.183 3.25807 175.183 0.191406 188.249 0.191406C201.449 0.191406 213.449 3.25807 224.249 9.3914C235.183 15.5247 243.783 24.0581 250.049 34.9914C256.449 45.7914 259.649 57.9914 259.649 71.5914C259.649 83.9914 256.983 95.3247 251.649 105.591C246.449 115.725 239.316 123.991 230.249 130.391L262.249 166.391H227.449ZM145.449 71.5914C145.449 80.9247 147.249 89.1247 150.849 96.1914C154.449 103.258 159.449 108.725 165.849 112.591C172.383 116.325 179.849 118.191 188.249 118.191C196.649 118.191 204.049 116.325 210.449 112.591C216.849 108.725 221.849 103.258 225.449 96.1914C229.049 89.1247 230.849 80.9247 230.849 71.5914C230.849 62.2581 229.049 54.1247 225.449 47.1914C221.849 40.1247 216.849 34.7247 210.449 30.9914C204.049 27.2581 196.649 25.3914 188.249 25.3914C179.849 25.3914 172.383 27.2581 165.849 30.9914C159.449 34.7247 154.449 40.1247 150.849 47.1914C147.249 54.1247 145.449 62.2581 145.449 71.5914Z" fill="white"/>
<path d="M52.2492 143.191C42.5159 143.191 33.7159 141.525 25.8492 138.191C18.1159 134.858 11.9826 130.058 7.44922 123.791C2.91588 117.525 0.582552 110.125 0.449219 101.591H30.4492C30.8492 107.325 32.8492 111.858 36.4492 115.191C40.1826 118.525 45.2492 120.191 51.6492 120.191C58.1826 120.191 63.3159 118.658 67.0492 115.591C70.7826 112.391 72.6492 108.258 72.6492 103.191C72.6492 99.0581 71.3826 95.6581 68.8492 92.9914C66.3159 90.3247 63.1159 88.2581 59.2492 86.7914C55.5159 85.1914 50.3159 83.4581 43.6492 81.5914C34.5826 78.9247 27.1826 76.3247 21.4492 73.7914C15.8492 71.1247 10.9826 67.1914 6.84922 61.9914C2.84922 56.6581 0.84922 49.5914 0.84922 40.7914C0.84922 32.5247 2.91589 25.3247 7.04922 19.1914C11.1826 13.0581 16.9826 8.3914 24.4492 5.1914C31.9159 1.85807 40.4492 0.191406 50.0492 0.191406C64.4492 0.191406 76.1159 3.72473 85.0492 10.7914C94.1159 17.7247 99.1159 27.4581 100.049 39.9914H69.2492C68.9826 35.1914 66.9159 31.2581 63.0492 28.1914C59.3159 24.9914 54.3159 23.3914 48.0492 23.3914C42.5826 23.3914 38.1826 24.7914 34.8492 27.5914C31.6492 30.3914 30.0492 34.4581 30.0492 39.7914C30.0492 43.5247 31.2492 46.6581 33.6492 49.1914C36.1826 51.5914 39.2492 53.5914 42.8492 55.1914C46.5826 56.6581 51.7826 58.3914 58.4492 60.3914C67.5159 63.0581 74.9159 65.7247 80.6492 68.3914C86.3826 71.0581 91.3159 75.0581 95.4492 80.3914C99.5826 85.7247 101.649 92.7247 101.649 101.391C101.649 108.858 99.7159 115.791 95.8492 122.191C91.9826 128.591 86.3159 133.725 78.8492 137.591C71.3826 141.325 62.5159 143.191 52.2492 143.191Z" fill="white"/>
</svg>
