<svg width="525" height="733" viewBox="0 0 525 733" fill="none" xmlns="http://www.w3.org/2000/svg">
<path d="M222.453 461.915L302.243 729.785L367.793 635.745L476.073 675.645L390.583 416.325L222.453 461.915Z" fill="#CD3414"/>
<g opacity="0.7">
<path d="M267.354 536.428L258.938 538.996L312.283 713.808L320.699 711.239L267.354 536.428Z" fill="#FFCE45"/>
</g>
<g opacity="0.7">
<path d="M389.065 457.607L380.672 460.252L446.223 668.279L454.616 665.634L389.065 457.607Z" fill="#FFCE45"/>
</g>
<path d="M125.568 433.425L40.0781 681.345L156.908 641.445L216.748 732.635L316.488 467.615L125.568 433.425Z" fill="#FE5629"/>
<g opacity="0.7">
<path d="M147.31 423.684L67.4961 668.744L75.8635 671.469L155.678 426.409L147.31 423.684Z" fill="#FFCE45"/>
</g>
<g opacity="0.7">
<path d="M289.756 452.042L198.539 711.356L206.84 714.277L298.058 454.962L289.756 452.042Z" fill="#FFCE45"/>
</g>
<path fill-rule="evenodd" clip-rule="evenodd" d="M15.8229 242.186C8.03344 247.759 0.183594 253.375 0.183594 259.595C0.183594 265.799 8.01521 271.409 15.7929 276.982C23.036 282.171 30.2323 287.326 31.0134 292.895C31.8478 298.658 26.2534 305.793 20.6877 312.89C14.8474 320.338 9.03878 327.746 10.7234 333.486C12.4438 339.368 21.4417 342.485 30.4319 345.6C38.8954 348.533 47.3522 351.463 49.7234 356.695C52.0925 361.923 48.7765 370.237 45.4604 378.552C41.932 387.399 38.4035 396.246 41.7234 401.376C45.0404 406.5 54.5597 406.967 64.0698 407.433C73.0239 407.871 81.9699 408.31 85.7234 412.635C89.4817 416.967 88.6518 425.908 87.8223 434.844C86.9435 444.312 86.0651 453.774 90.6436 457.746C95.2274 461.722 104.501 459.509 113.768 457.298C122.493 455.216 131.212 453.136 136.003 456.225C140.798 459.317 142.522 468.13 144.245 476.941C146.073 486.288 147.901 495.634 153.394 498.145C158.87 500.65 167.067 495.945 175.292 491.224C183.093 486.747 190.919 482.255 196.473 483.885C201.89 485.459 205.98 493.339 210.091 501.259C214.496 509.745 218.925 518.277 225.033 519.146C230.926 519.989 237.403 513.216 243.93 506.392C250.175 499.863 256.466 493.285 262.333 493.285C268.203 493.285 274.503 499.862 280.755 506.389C287.286 513.206 293.763 519.969 299.644 519.126C305.76 518.256 310.19 509.722 314.596 501.235C318.703 493.321 322.79 485.448 328.204 483.866C333.745 482.239 341.522 486.716 349.291 491.188C357.519 495.925 365.739 500.656 371.283 498.126C376.836 495.591 378.642 486.245 380.448 476.901C382.149 468.104 383.848 459.309 388.674 456.205C393.504 453.099 402.232 455.188 410.956 457.277C420.203 459.49 429.444 461.703 434.033 457.725C438.622 453.749 437.738 444.282 436.854 434.813C436.02 425.876 435.186 416.937 438.954 412.616C442.721 408.295 451.709 407.844 460.686 407.394C470.201 406.916 479.702 406.439 482.954 401.355C486.206 396.271 482.7 387.417 479.196 378.564C475.89 370.213 472.585 361.865 474.954 356.686C477.312 351.529 485.719 348.601 494.154 345.662C503.175 342.52 512.228 339.367 513.954 333.465C515.639 327.722 509.829 320.308 503.989 312.855C498.431 305.762 492.844 298.634 493.664 292.876C494.458 287.321 501.646 282.176 508.883 276.995C516.67 271.42 524.513 265.805 524.513 259.595C524.513 253.386 516.67 247.771 508.883 242.196C501.646 237.015 494.458 231.87 493.664 226.316C492.829 220.548 498.424 213.413 503.99 206.315C509.83 198.868 515.638 191.46 513.954 185.715C512.228 179.839 503.23 176.719 494.241 173.601C485.777 170.666 477.32 167.734 474.954 162.505C472.59 157.285 475.903 148.977 479.216 140.667C482.745 131.819 486.275 122.967 482.954 117.835C479.637 112.711 470.117 112.244 460.607 111.778C451.653 111.34 442.707 110.901 438.954 106.576C435.195 102.244 436.025 93.3062 436.855 84.3713C437.733 74.9049 438.612 65.4421 434.033 61.4655C429.449 57.4836 420.178 59.6977 410.914 61.9103C402.194 63.9929 393.479 66.0742 388.684 62.9855C383.882 59.8928 382.154 51.0718 380.427 42.2555C378.597 32.9132 376.768 23.5762 371.283 21.0655C365.813 18.5613 357.617 23.2646 349.392 27.9849C341.588 32.463 333.758 36.9564 328.204 35.3255C322.788 33.7521 318.701 25.8752 314.592 17.9571C310.188 9.46954 305.759 0.934659 299.644 0.0655001C293.755 -0.777915 287.271 5.99775 280.738 12.8237C274.491 19.3516 268.2 25.9255 262.344 25.9255C256.488 25.9255 250.201 19.3541 243.956 12.8274C237.424 6.0002 230.938 -0.778067 225.043 0.0655001C218.932 0.934826 214.503 9.46478 210.096 17.9504C205.987 25.8634 201.898 33.7379 196.483 35.3255C190.942 36.9524 183.165 32.4755 175.396 28.0032C167.168 23.2664 158.948 18.5349 153.404 21.0655C147.851 23.5996 146.045 32.9463 144.239 42.29C142.538 51.0873 140.839 59.8819 136.013 62.9855C131.184 66.0919 122.455 63.9988 113.732 61.9069C104.483 59.689 95.2388 57.4723 90.6536 61.4555C86.0698 65.4373 86.9539 74.9082 87.8378 84.3783C88.6722 93.3165 89.5064 102.254 85.7434 106.576C81.9812 110.896 72.9945 111.347 64.0181 111.797C54.5035 112.275 45.0005 112.752 41.7434 117.835C38.4853 122.921 41.9933 131.779 45.5001 140.633C48.8064 148.982 52.1116 157.327 49.7434 162.505C47.3845 167.663 38.9739 170.592 30.5361 173.53C21.5181 176.67 12.4689 179.821 10.7434 185.715C9.05767 191.464 14.8673 198.878 20.708 206.331C26.2663 213.423 31.8526 220.552 31.0334 226.316C30.2436 231.868 23.0593 237.008 15.8229 242.186ZM232.229 328.303C240.799 332.091 250.624 333.985 261.703 333.985C273.067 333.985 283.129 332.138 291.888 328.445C300.695 324.704 307.56 319.591 312.485 313.104C317.456 306.57 319.942 299.089 319.942 290.661C319.989 281.712 317.125 274.255 311.348 268.289C305.619 262.323 297.12 258.677 285.851 257.351V256.215C294.279 254.984 301.168 251.717 306.519 246.414C311.917 241.111 314.592 234.364 314.544 226.172C314.544 218.265 312.343 211.186 307.939 204.936C303.536 198.639 297.381 193.667 289.473 190.022C281.566 186.376 272.404 184.553 261.988 184.553C251.524 184.553 242.196 186.423 234.005 190.164C225.861 193.904 219.421 199.089 214.686 205.718C209.952 212.299 207.537 219.922 207.442 228.587H241.036C241.131 225.273 242.101 222.361 243.948 219.851C245.794 217.342 248.28 215.4 251.405 214.027C254.578 212.654 258.105 211.968 261.988 211.968C265.681 211.968 268.924 212.654 271.718 214.027C274.559 215.4 276.76 217.342 278.323 219.851C279.933 222.313 280.714 225.178 280.667 228.445C280.714 231.807 279.814 234.79 277.968 237.394C276.121 239.951 273.541 241.939 270.226 243.36C266.959 244.78 263.171 245.49 258.863 245.49H244.729V270.49H258.863C263.787 270.49 268.048 271.224 271.647 272.692C275.293 274.16 278.11 276.22 280.098 278.871C282.087 281.523 283.058 284.553 283.01 287.962C283.058 291.371 282.182 294.401 280.382 297.053C278.583 299.657 276.074 301.717 272.854 303.232C269.682 304.7 266.012 305.434 261.846 305.434C257.679 305.434 253.962 304.747 250.695 303.374C247.428 302.001 244.847 300.107 242.953 297.692C241.06 295.23 240.042 292.413 239.9 289.24H204.53C204.625 298 207.134 305.741 212.059 312.465C216.983 319.188 223.706 324.468 232.229 328.303Z" fill="#FCAB28"/>
<path fill-rule="evenodd" clip-rule="evenodd" d="M473.229 259.606C473.229 376.071 378.815 470.486 262.349 470.486C145.883 470.486 51.4688 376.071 51.4688 259.606C51.4688 143.14 145.883 48.7256 262.349 48.7256C378.815 48.7256 473.229 143.14 473.229 259.606ZM232.229 328.303C240.799 332.091 250.624 333.985 261.703 333.985C273.067 333.985 283.129 332.138 291.888 328.445C300.695 324.704 307.56 319.591 312.485 313.104C317.456 306.57 319.942 299.089 319.942 290.661C319.989 281.712 317.125 274.255 311.348 268.289C305.619 262.323 297.12 258.677 285.851 257.351V256.215C294.279 254.984 301.168 251.717 306.519 246.414C311.917 241.111 314.592 234.364 314.544 226.172C314.544 218.265 312.343 211.186 307.939 204.936C303.536 198.639 297.381 193.667 289.473 190.022C281.566 186.376 272.404 184.553 261.988 184.553C251.524 184.553 242.196 186.423 234.005 190.164C225.861 193.904 219.421 199.089 214.686 205.718C209.952 212.299 207.537 219.922 207.442 228.587H241.036C241.131 225.273 242.101 222.361 243.948 219.851C245.794 217.342 248.28 215.4 251.405 214.027C254.578 212.654 258.105 211.968 261.988 211.968C265.681 211.968 268.924 212.654 271.718 214.027C274.559 215.4 276.76 217.342 278.323 219.851C279.933 222.313 280.714 225.178 280.667 228.445C280.714 231.807 279.814 234.79 277.968 237.394C276.121 239.951 273.541 241.939 270.226 243.36C266.959 244.78 263.171 245.49 258.863 245.49H244.729V270.49H258.863C263.787 270.49 268.048 271.224 271.647 272.692C275.292 274.16 278.11 276.22 280.098 278.871C282.087 281.523 283.058 284.553 283.01 287.962C283.058 291.371 282.182 294.401 280.382 297.053C278.583 299.657 276.074 301.717 272.854 303.232C269.682 304.7 266.012 305.434 261.846 305.434C257.679 305.434 253.962 304.747 250.695 303.374C247.428 302.001 244.847 300.107 242.953 297.692C241.06 295.23 240.042 292.413 239.9 289.24H204.53C204.625 298 207.134 305.741 212.059 312.465C216.983 319.188 223.706 324.468 232.229 328.303Z" fill="#FFCE45"/>
<path fill-rule="evenodd" clip-rule="evenodd" d="M413.376 259.605C413.376 343.017 345.758 410.635 262.346 410.635C178.935 410.635 111.316 343.017 111.316 259.605C111.316 176.194 178.935 108.575 262.346 108.575C345.758 108.575 413.376 176.194 413.376 259.605ZM232.225 328.302C240.795 332.09 250.62 333.984 261.7 333.984C273.063 333.984 283.125 332.137 291.884 328.444C300.691 324.703 307.557 319.59 312.481 313.103C317.452 306.569 319.938 299.088 319.938 290.66C319.986 281.711 317.121 274.254 311.344 268.288C305.615 262.322 297.116 258.676 285.847 257.35V256.214C294.275 254.983 301.165 251.716 306.515 246.413C311.913 241.11 314.588 234.363 314.54 226.171C314.54 218.264 312.339 211.185 307.935 204.935C303.532 198.638 297.377 193.667 289.469 190.021C281.562 186.375 272.4 184.552 261.984 184.552C251.52 184.552 242.192 186.422 234.001 190.163C225.857 193.903 219.417 199.088 214.683 205.717C209.948 212.298 207.533 219.921 207.438 228.586H241.032C241.127 225.272 242.097 222.36 243.944 219.85C245.79 217.341 248.276 215.399 251.401 214.026C254.574 212.653 258.101 211.967 261.984 211.967C265.677 211.967 268.92 212.653 271.714 214.026C274.555 215.399 276.756 217.341 278.319 219.85C279.929 222.312 280.71 225.177 280.663 228.444C280.71 231.806 279.81 234.789 277.964 237.393C276.117 239.95 273.537 241.938 270.222 243.359C266.955 244.779 263.167 245.489 258.859 245.489H244.725V270.489H258.859C263.783 270.489 268.044 271.223 271.643 272.691C275.289 274.159 278.106 276.219 280.094 278.87C282.083 281.522 283.054 284.552 283.006 287.961C283.054 291.37 282.178 294.4 280.379 297.052C278.579 299.656 276.07 301.716 272.85 303.231C269.678 304.699 266.008 305.433 261.842 305.433C257.675 305.433 253.958 304.746 250.691 303.373C247.424 302 244.844 300.106 242.95 297.691C241.056 295.229 240.038 292.412 239.896 289.239H204.526C204.621 297.999 207.13 305.74 212.055 312.464C216.979 319.187 223.702 324.467 232.225 328.302Z" fill="#FFD733"/>
<path d="M262.32 474.754C212.544 474.749 164.309 457.485 125.835 425.903C87.3607 394.322 61.0273 350.377 51.3215 301.556C41.6157 252.736 49.138 202.06 72.6069 158.164C96.0757 114.267 134.039 79.8667 180.028 60.823C226.017 41.7792 277.187 39.2707 324.818 53.7249C372.449 68.1791 413.595 98.7017 441.245 140.092C468.895 181.482 481.338 231.179 476.454 280.715C471.569 330.251 449.66 376.561 414.46 411.754C394.527 431.795 370.816 447.682 344.701 458.496C318.586 469.31 290.585 474.836 262.32 474.754ZM262.32 53.0041C148.4 53.0041 55.7197 145.684 55.7197 259.604C55.7197 373.524 148.4 466.204 262.32 466.204C376.24 466.204 468.92 373.524 468.92 259.604C468.92 145.684 376.26 53.0041 262.32 53.0041Z" fill="#FCAB28"/>
<path d="M262.344 415.034C176.644 415.034 106.914 345.304 106.914 259.604C106.914 173.904 176.664 104.174 262.344 104.174C348.024 104.174 417.774 173.894 417.774 259.604C417.774 345.314 348.074 415.034 262.344 415.034ZM262.344 112.974C181.494 112.974 115.714 178.754 115.714 259.604C115.714 340.454 181.514 406.234 262.344 406.234C343.174 406.234 408.974 340.454 408.974 259.604C408.974 178.754 343.224 112.974 262.344 112.974Z" fill="#FCAB28"/>
</svg>
