<svg width="511" height="506" viewBox="0 0 511 506" fill="none" xmlns="http://www.w3.org/2000/svg">
<path d="M0.292969 252.815C0.292969 241.146 28.6958 231.666 30.2905 220.454C31.9241 208.961 7.36193 191.886 10.561 180.976C13.8088 169.881 43.7384 168.782 48.4836 158.407C53.2287 148.032 34.5495 124.578 40.7046 114.971C46.8597 105.364 75.9531 112.677 83.489 104.023C91.0248 95.3684 79.5996 67.6752 88.2635 60.1491C96.9273 52.6229 122.695 67.86 132.37 61.6368C142.045 55.4136 138.798 25.659 149.28 20.875C159.762 16.0909 180.075 37.9984 191.169 34.741C202.079 31.5419 207.457 2.08872 218.94 0.455133C230.152 -1.14928 243.561 25.6007 255.21 25.6007C266.859 25.6007 280.278 -1.14928 291.48 0.455133C302.973 2.08872 308.34 31.5711 319.251 34.741C330.345 37.9984 350.775 16.1298 361.14 20.875C371.506 25.6201 368.443 55.4428 378.06 61.6368C387.676 67.8308 413.502 52.6423 422.156 60.1588C430.811 67.6752 419.415 95.349 426.941 104.023C434.467 112.696 463.463 105.296 469.725 114.971C475.987 124.647 457.201 147.925 461.946 158.407C466.691 168.889 496.611 169.881 499.869 180.976C503.068 191.886 478.476 208.961 480.139 220.454C481.744 231.666 510.137 241.166 510.137 252.815C510.137 264.464 481.744 273.964 480.139 285.175C478.506 296.659 503.068 313.744 499.869 324.644C496.621 335.749 466.691 336.847 461.946 347.223C457.201 357.598 475.87 381.051 469.725 390.658C463.58 400.265 434.486 392.953 426.941 401.607C419.395 410.261 430.83 437.955 422.156 445.471C413.483 452.987 387.725 437.77 378.05 443.993C368.375 450.216 371.622 479.971 361.14 484.755C350.658 489.539 330.345 467.631 319.251 470.889C308.34 474.078 302.973 503.541 291.48 505.175C280.287 506.779 266.869 480.049 255.2 480.049C243.532 480.049 230.142 506.799 218.931 505.194C207.447 503.561 202.07 474.078 191.16 470.908C180.065 467.651 159.645 489.519 149.27 484.774C138.895 480.029 141.967 450.206 132.36 444.012C122.753 437.818 96.9078 452.997 88.2537 445.49C79.5996 437.984 90.9956 410.3 83.4695 401.627C75.9433 392.953 46.9472 400.353 40.6851 390.678C34.423 381.003 53.219 357.724 48.4641 347.232C43.7092 336.74 13.7893 335.768 10.5416 324.663C7.34247 313.763 31.9338 296.679 30.271 285.195C28.6958 273.964 0.292969 264.464 0.292969 252.815Z" fill="#FC9928"/>
<path d="M255.216 463.704C371.682 463.704 466.096 369.29 466.096 252.824C466.096 136.359 371.682 41.9443 255.216 41.9443C138.75 41.9443 44.3359 136.359 44.3359 252.824C44.3359 369.29 138.75 463.704 255.216 463.704Z" fill="#FFD733"/>
<path d="M255.215 407.255C170.067 407.255 100.785 337.972 100.785 252.825C100.785 167.677 170.087 98.3945 255.215 98.3945C340.343 98.3945 409.645 167.667 409.645 252.825C409.645 337.982 340.393 407.255 255.215 407.255ZM255.215 105.195C173.813 105.195 107.585 171.422 107.585 252.825C107.585 334.227 173.833 400.455 255.215 400.455C336.597 400.455 402.845 334.227 402.845 252.825C402.845 171.422 336.648 105.195 255.215 105.195Z" fill="#FC9928" stroke="#FC9928" stroke-width="2"/>
<path d="M283.489 179.805V325.26H248.404V212.618H247.551L215.023 232.504V202.106L250.889 179.805H283.489Z" fill="#ED572F"/>
</svg>
