<svg width="525" height="733" viewBox="0 0 525 733" fill="none" xmlns="http://www.w3.org/2000/svg">
<path d="M222.367 461.915L302.157 729.785L367.707 635.745L475.987 675.645L390.497 416.325L222.367 461.915Z" fill="#CD3414"/>
<g opacity="0.7">
<path d="M267.272 536.428L258.855 538.996L312.201 713.808L320.617 711.239L267.272 536.428Z" fill="#FFCE45"/>
</g>
<g opacity="0.7">
<path d="M388.983 457.607L380.59 460.252L446.14 668.279L454.534 665.634L388.983 457.607Z" fill="#FFCE45"/>
</g>
<path d="M125.486 433.425L39.9961 681.345L156.826 641.445L216.666 732.635L316.406 467.615L125.486 433.425Z" fill="#FE5629"/>
<g opacity="0.7">
<path d="M147.228 423.684L67.4141 668.744L75.7815 671.469L155.596 426.409L147.228 423.684Z" fill="#FFCE45"/>
</g>
<g opacity="0.7">
<path d="M289.674 452.042L198.457 711.356L206.758 714.277L297.976 454.962L289.674 452.042Z" fill="#FFCE45"/>
</g>
<path fill-rule="evenodd" clip-rule="evenodd" d="M15.7408 242.186C7.95141 247.759 0.101562 253.375 0.101562 259.595C0.101562 265.799 7.93318 271.409 15.7109 276.982C22.9539 282.171 30.1502 287.326 30.9314 292.895C31.7658 298.658 26.1714 305.793 20.6057 312.89C14.7654 320.338 8.95675 327.746 10.6414 333.486C12.3617 339.368 21.3597 342.485 30.3498 345.6C38.8134 348.533 47.2701 351.463 49.6414 356.695C52.0105 361.923 48.6945 370.237 45.3784 378.552C41.85 387.399 38.3215 396.246 41.6414 401.376C44.9583 406.5 54.4776 406.967 63.9878 407.433C72.9419 407.871 81.8879 408.31 85.6414 412.635C89.3997 416.967 88.5698 425.908 87.7403 434.844C86.8615 444.312 85.9831 453.774 90.5615 457.746C95.1454 461.722 104.419 459.509 113.686 457.298C122.411 455.216 131.13 453.136 135.921 456.225C140.716 459.317 142.439 468.13 144.163 476.941C145.991 486.288 147.819 495.634 153.312 498.145C158.788 500.65 166.985 495.945 175.21 491.224C183.011 486.747 190.837 482.255 196.391 483.885C201.808 485.459 205.898 493.339 210.009 501.259C214.414 509.745 218.843 518.277 224.951 519.146C230.844 519.989 237.321 513.216 243.848 506.392C250.093 499.863 256.384 493.285 262.251 493.285C268.121 493.285 274.421 499.862 280.673 506.389C287.204 513.206 293.681 519.969 299.562 519.126C305.678 518.256 310.108 509.722 314.514 501.235C318.621 493.321 322.708 485.448 328.122 483.866C333.663 482.239 341.44 486.716 349.209 491.188C357.437 495.925 365.657 500.656 371.201 498.126C376.754 495.591 378.56 486.245 380.366 476.901C382.067 468.104 383.766 459.309 388.592 456.205C393.422 453.099 402.15 455.188 410.874 457.277C420.12 459.49 429.362 461.703 433.951 457.725C438.54 453.749 437.656 444.282 436.772 434.813C435.938 425.876 435.103 416.937 438.872 412.616C442.639 408.295 451.627 407.844 460.604 407.394C470.119 406.916 479.62 406.439 482.872 401.355C486.124 396.271 482.618 387.417 479.114 378.564C475.808 370.213 472.503 361.865 474.872 356.686C477.23 351.529 485.637 348.601 494.072 345.662C503.093 342.52 512.146 339.367 513.872 333.465C515.557 327.722 509.747 320.308 503.907 312.855C498.349 305.762 492.762 298.634 493.582 292.876C494.376 287.321 501.564 282.176 508.801 276.995C516.588 271.42 524.431 265.805 524.431 259.595C524.431 253.386 516.588 247.771 508.801 242.196C501.564 237.015 494.376 231.87 493.582 226.316C492.747 220.548 498.342 213.413 503.908 206.315C509.748 198.868 515.556 191.46 513.872 185.715C512.146 179.839 503.148 176.719 494.159 173.601C485.694 170.666 477.238 167.734 474.872 162.505C472.508 157.285 475.821 148.977 479.134 140.667C482.663 131.819 486.193 122.967 482.872 117.835C479.555 112.711 470.035 112.244 460.525 111.778C451.571 111.34 442.625 110.901 438.872 106.576C435.113 102.244 435.943 93.3062 436.773 84.3713C437.651 74.9049 438.53 65.4421 433.951 61.4655C429.367 57.4836 420.096 59.6977 410.832 61.9103C402.112 63.9929 393.397 66.0742 388.602 62.9855C383.8 59.8928 382.072 51.0718 380.345 42.2555C378.515 32.9132 376.686 23.5762 371.201 21.0655C365.731 18.5613 357.535 23.2646 349.31 27.9849C341.506 32.463 333.676 36.9564 328.122 35.3255C322.706 33.7521 318.619 25.8752 314.51 17.9571C310.106 9.46954 305.677 0.934659 299.562 0.0655001C293.673 -0.777915 287.189 5.99775 280.656 12.8237C274.409 19.3516 268.118 25.9255 262.261 25.9255C256.406 25.9255 250.119 19.3541 243.874 12.8274C237.342 6.0002 230.856 -0.778067 224.961 0.0655001C218.85 0.934826 214.421 9.46478 210.014 17.9504C205.905 25.8634 201.816 33.7379 196.401 35.3255C190.86 36.9524 183.083 32.4755 175.314 28.0032C167.086 23.2664 158.866 18.5349 153.322 21.0655C147.769 23.5996 145.963 32.9463 144.157 42.29C142.456 51.0873 140.757 59.8819 135.931 62.9855C131.102 66.0919 122.373 63.9988 113.65 61.9069C104.401 59.689 95.1568 57.4723 90.5715 61.4555C85.9878 65.4373 86.8718 74.9082 87.7558 84.3783C88.5901 93.3165 89.4244 102.254 85.6614 106.576C81.8992 110.896 72.9124 111.347 63.9361 111.797C54.4215 112.275 44.9185 112.752 41.6614 117.835C38.4033 122.921 41.9113 131.779 45.418 140.633C48.7244 148.982 52.0296 157.327 49.6614 162.505C47.3025 167.663 38.8919 170.592 30.4541 173.53C21.4361 176.67 12.3869 179.821 10.6614 185.715C8.97564 191.464 14.7853 198.878 20.6259 206.331C26.1843 213.423 31.7706 220.552 30.9514 226.316C30.1616 231.868 22.9773 237.008 15.7408 242.186ZM209.224 306.712V331.996H316.895V303.658H257.946V302.735L275.347 286.684C285.905 277.498 294.049 269.614 299.778 263.033C305.555 256.452 309.556 250.438 311.781 244.993C314.007 239.548 315.119 234.056 315.119 228.516C315.119 219.804 312.87 212.157 308.372 205.576C303.921 198.947 297.624 193.786 289.48 190.093C281.336 186.4 271.748 184.553 260.716 184.553C250.015 184.553 240.616 186.518 232.52 190.448C224.471 194.33 218.221 199.87 213.77 207.067C209.319 214.264 207.094 222.81 207.094 232.706H240.403C240.403 228.303 241.232 224.562 242.889 221.485C244.594 218.407 246.961 216.063 249.991 214.453C253.022 212.796 256.549 211.968 260.574 211.968C264.551 211.968 268.079 212.749 271.156 214.311C274.234 215.874 276.649 218.099 278.401 220.988C280.152 223.828 281.028 227.261 281.028 231.286C281.028 234.884 280.295 238.222 278.827 241.3C277.359 244.33 275.228 247.361 272.435 250.391C269.641 253.374 266.256 256.665 262.278 260.263L209.224 306.712Z" fill="#FCAB28"/>
<path fill-rule="evenodd" clip-rule="evenodd" d="M473.147 259.606C473.147 376.071 378.733 470.486 262.267 470.486C145.801 470.486 51.3867 376.071 51.3867 259.606C51.3867 143.14 145.801 48.7256 262.267 48.7256C378.733 48.7256 473.147 143.14 473.147 259.606ZM209.224 306.712V331.996H316.895V303.658H257.946V302.735L275.347 286.684C285.905 277.498 294.049 269.614 299.778 263.033C305.555 256.452 309.556 250.438 311.781 244.993C314.007 239.548 315.119 234.056 315.119 228.516C315.119 219.804 312.87 212.157 308.372 205.576C303.921 198.947 297.624 193.786 289.48 190.093C281.336 186.4 271.748 184.553 260.716 184.553C250.015 184.553 240.616 186.518 232.52 190.448C224.471 194.33 218.221 199.87 213.77 207.067C209.319 214.264 207.094 222.81 207.094 232.706H240.403C240.403 228.303 241.232 224.562 242.889 221.485C244.594 218.407 246.961 216.063 249.991 214.453C253.022 212.796 256.549 211.968 260.574 211.968C264.551 211.968 268.079 212.749 271.156 214.311C274.234 215.874 276.649 218.099 278.401 220.988C280.152 223.828 281.028 227.261 281.028 231.286C281.028 234.884 280.295 238.222 278.827 241.3C277.359 244.33 275.228 247.361 272.435 250.391C269.641 253.374 266.256 256.665 262.278 260.263L209.224 306.712Z" fill="#FFCE45"/>
<path fill-rule="evenodd" clip-rule="evenodd" d="M413.294 259.605C413.294 343.017 345.676 410.635 262.264 410.635C178.853 410.635 111.234 343.017 111.234 259.605C111.234 176.194 178.853 108.575 262.264 108.575C345.676 108.575 413.294 176.194 413.294 259.605ZM209.221 306.711V331.995H316.891V303.657H257.942V302.734L275.343 286.683C285.901 277.497 294.045 269.613 299.775 263.032C305.551 256.451 309.552 250.437 311.777 244.992C314.003 239.547 315.115 234.055 315.115 228.515C315.115 219.803 312.866 212.156 308.368 205.575C303.917 198.946 297.62 193.785 289.476 190.092C281.332 186.399 271.744 184.552 260.712 184.552C250.011 184.552 240.613 186.517 232.516 190.447C224.467 194.329 218.217 199.869 213.766 207.066C209.315 214.263 207.09 222.81 207.09 232.705H240.4C240.4 228.302 241.228 224.561 242.885 221.484C244.59 218.406 246.957 216.062 249.988 214.453C253.018 212.795 256.545 211.967 260.57 211.967C264.547 211.967 268.075 212.748 271.152 214.31C274.23 215.873 276.645 218.098 278.397 220.987C280.149 223.827 281.025 227.26 281.025 231.285C281.025 234.883 280.291 238.221 278.823 241.299C277.355 244.329 275.224 247.36 272.431 250.39C269.637 253.373 266.252 256.664 262.275 260.262L209.221 306.711Z" fill="#FFD733"/>
<path d="M262.238 474.754C212.462 474.749 164.227 457.485 125.753 425.903C87.2786 394.322 60.9453 350.377 51.2394 301.556C41.5336 252.736 49.056 202.06 72.5248 158.164C95.9937 114.267 133.957 79.8667 179.946 60.823C225.935 41.7792 277.105 39.2707 324.736 53.7249C372.367 68.1791 413.513 98.7017 441.163 140.092C468.813 181.482 481.256 231.179 476.372 280.715C471.487 330.251 449.578 376.561 414.378 411.754C394.445 431.795 370.734 447.682 344.619 458.496C318.504 469.31 290.503 474.836 262.238 474.754ZM262.238 53.0041C148.318 53.0041 55.6376 145.684 55.6376 259.604C55.6376 373.524 148.318 466.204 262.238 466.204C376.158 466.204 468.838 373.524 468.838 259.604C468.838 145.684 376.178 53.0041 262.238 53.0041Z" fill="#FCAB28"/>
<path d="M262.262 415.034C176.562 415.034 106.832 345.304 106.832 259.604C106.832 173.904 176.582 104.174 262.262 104.174C347.942 104.174 417.692 173.894 417.692 259.604C417.692 345.314 347.992 415.034 262.262 415.034ZM262.262 112.974C181.412 112.974 115.632 178.754 115.632 259.604C115.632 340.454 181.432 406.234 262.262 406.234C343.092 406.234 408.892 340.454 408.892 259.604C408.892 178.754 343.142 112.974 262.262 112.974Z" fill="#FCAB28"/>
</svg>
