<svg width="510" height="622" viewBox="0 0 510 622" fill="none" xmlns="http://www.w3.org/2000/svg">
<path d="M216.473 392.568L318.225 609.071L361.685 521.11L458.42 541.042L352.937 332.503L216.473 392.568Z" fill="#ED572F"/>
<path d="M151.729 346.003L50.6378 546.402L154.321 526.035L194.555 610.273L309.703 397.015L151.729 346.003Z" fill="#ED572F"/>
<path d="M0.109375 252.815C0.109375 241.146 28.5122 231.666 30.1069 220.454C31.7405 208.961 7.17834 191.886 10.3774 180.976C13.6252 169.881 43.5548 168.782 48.3 158.407C53.0451 148.032 34.3659 124.578 40.521 114.971C46.6761 105.364 75.7695 112.677 83.3054 104.023C90.8412 95.3684 79.416 67.6752 88.0799 60.1491C96.7437 52.6229 122.511 67.86 132.187 61.6368C141.862 55.4136 138.614 25.659 149.096 20.875C159.578 16.0909 179.891 37.9984 190.986 34.741C201.896 31.5419 207.273 2.08872 218.757 0.455133C229.968 -1.14928 243.377 25.6007 255.026 25.6007C266.675 25.6007 280.094 -1.14928 291.296 0.455133C302.789 2.08872 308.157 31.5711 319.067 34.741C330.162 37.9984 350.591 16.1298 360.957 20.875C371.322 25.6201 368.259 55.4428 377.876 61.6368C387.493 67.8308 413.319 52.6423 421.973 60.1588C430.627 67.6752 419.231 95.349 426.757 104.023C434.283 112.696 463.279 105.296 469.542 114.971C475.804 124.647 457.017 147.925 461.763 158.407C466.508 168.889 496.428 169.881 499.685 180.976C502.884 191.886 478.293 208.961 479.956 220.454C481.56 231.666 509.953 241.166 509.953 252.815C509.953 264.464 481.56 273.964 479.956 285.175C478.322 296.659 502.884 313.744 499.685 324.644C496.437 335.749 466.508 336.847 461.763 347.223C457.017 357.598 475.687 381.051 469.542 390.658C463.396 400.265 434.303 392.953 426.757 401.607C419.212 410.261 430.646 437.955 421.973 445.471C413.299 452.987 387.541 437.77 377.866 443.993C368.191 450.216 371.439 479.971 360.957 484.755C350.474 489.539 330.162 467.631 319.067 470.889C308.157 474.078 302.789 503.541 291.296 505.175C280.104 506.779 266.685 480.049 255.017 480.049C243.348 480.049 229.959 506.799 218.747 505.194C207.263 503.561 201.886 474.078 190.976 470.908C179.881 467.651 159.462 489.519 149.086 484.774C138.711 480.029 141.784 450.206 132.177 444.012C122.57 437.818 96.7242 452.997 88.0701 445.49C79.416 437.984 90.8121 410.3 83.2859 401.627C75.7597 392.953 46.7636 400.353 40.5015 390.678C34.2394 381.003 53.0354 357.724 48.2805 347.232C43.5256 336.74 13.6057 335.768 10.358 324.663C7.15887 313.763 31.7502 296.679 30.0874 285.195C28.5122 273.964 0.109375 264.464 0.109375 252.815Z" fill="#FC9928"/>
<path d="M255.036 463.704C371.502 463.704 465.916 369.29 465.916 252.824C465.916 136.359 371.502 41.9443 255.036 41.9443C138.57 41.9443 44.1562 136.359 44.1562 252.824C44.1562 369.29 138.57 463.704 255.036 463.704Z" fill="#FFD733"/>
<path d="M255.031 407.255C169.884 407.255 100.602 337.972 100.602 252.825C100.602 167.677 169.904 98.3945 255.031 98.3945C340.159 98.3945 409.461 167.667 409.461 252.825C409.461 337.982 340.209 407.255 255.031 407.255ZM255.031 105.195C173.629 105.195 107.402 171.422 107.402 252.825C107.402 334.227 173.649 400.455 255.031 400.455C336.414 400.455 402.661 334.227 402.661 252.825C402.661 171.422 336.464 105.195 255.031 105.195Z" fill="#FC9928" stroke="#FC9928" stroke-width="2"/>
<path d="M254.385 327.248C243.306 327.248 233.481 325.354 224.911 321.567C216.388 317.731 209.664 312.452 204.74 305.729C199.816 299.005 197.307 291.264 197.212 282.504H232.581C232.723 285.676 233.741 288.494 235.635 290.956C237.529 293.371 240.11 295.265 243.377 296.638C246.644 298.011 250.36 298.697 254.527 298.697C258.694 298.697 262.363 297.963 265.536 296.496C268.755 294.98 271.265 292.921 273.064 290.317C274.863 287.665 275.739 284.635 275.692 281.226C275.739 277.817 274.769 274.786 272.78 272.135C270.791 269.483 267.974 267.424 264.328 265.956C260.73 264.488 256.468 263.754 251.544 263.754H237.411V238.754H251.544C255.853 238.754 259.641 238.044 262.908 236.623C266.222 235.203 268.803 233.214 270.649 230.657C272.496 228.053 273.396 225.07 273.348 221.709C273.396 218.442 272.614 215.577 271.004 213.115C269.442 210.605 267.24 208.664 264.399 207.291C261.606 205.918 258.362 205.231 254.669 205.231C250.787 205.231 247.259 205.918 244.087 207.291C240.962 208.664 238.476 210.605 236.629 213.115C234.783 215.624 233.812 218.536 233.718 221.851H200.124C200.218 213.186 202.633 205.563 207.368 198.981C212.103 192.353 218.542 187.168 226.686 183.427C234.878 179.687 244.205 177.817 254.669 177.817C265.086 177.817 274.248 179.639 282.155 183.285C290.062 186.931 296.218 191.903 300.621 198.2C305.024 204.45 307.226 211.529 307.226 219.436C307.273 227.627 304.598 234.374 299.2 239.677C293.85 244.98 286.961 248.247 278.533 249.479V250.615C289.802 251.941 298.301 255.586 304.03 261.552C309.807 267.518 312.671 274.976 312.624 283.925C312.624 292.353 310.138 299.834 305.166 306.368C300.242 312.854 293.377 317.968 284.57 321.709C275.81 325.402 265.749 327.248 254.385 327.248Z" fill="#ED572F"/>
</svg>
