<svg width="525" height="733" viewBox="0 0 525 733" fill="none" xmlns="http://www.w3.org/2000/svg">
<path d="M222.551 461.915L302.341 729.785L367.891 635.745L476.171 675.645L390.681 416.325L222.551 461.915Z" fill="#CD3414"/>
<g opacity="0.7">
<path d="M267.456 536.428L259.039 538.996L312.384 713.808L320.801 711.239L267.456 536.428Z" fill="#FFCE45"/>
</g>
<g opacity="0.7">
<path d="M389.167 457.607L380.773 460.252L446.324 668.279L454.717 665.634L389.167 457.607Z" fill="#FFCE45"/>
</g>
<path d="M125.67 433.425L40.1797 681.345L157.01 641.445L216.85 732.635L316.59 467.615L125.67 433.425Z" fill="#FE5629"/>
<g opacity="0.7">
<path d="M147.412 423.684L67.5977 668.744L75.9651 671.469L155.779 426.409L147.412 423.684Z" fill="#FFCE45"/>
</g>
<g opacity="0.7">
<path d="M289.858 452.042L198.641 711.356L206.942 714.277L298.159 454.962L289.858 452.042Z" fill="#FFCE45"/>
</g>
<path fill-rule="evenodd" clip-rule="evenodd" d="M15.9244 242.186C8.13501 247.759 0.285156 253.375 0.285156 259.595C0.285156 265.799 8.11678 271.409 15.8945 276.981C23.1375 282.171 30.3338 287.326 31.115 292.895C31.9494 298.658 26.355 305.793 20.7893 312.89C14.949 320.338 9.14035 327.746 10.825 333.486C12.5453 339.368 21.5433 342.485 30.5334 345.601C38.997 348.533 47.4537 351.463 49.825 356.695C52.1941 361.923 48.8781 370.237 45.562 378.552C42.0336 387.399 38.5051 396.246 41.825 401.376C45.1419 406.5 54.6612 406.967 64.1714 407.433C73.1255 407.871 82.0715 408.31 85.825 412.635C89.5833 416.967 88.7534 425.908 87.9239 434.844C87.0451 444.312 86.1667 453.774 90.7451 457.746C95.329 461.722 104.603 459.509 113.869 457.298C122.595 455.217 131.314 453.136 136.105 456.226C140.899 459.317 142.623 468.13 144.347 476.941C146.175 486.288 148.003 495.634 153.495 498.145C158.971 500.65 167.168 495.945 175.393 491.224C183.195 486.747 191.021 482.255 196.575 483.885C201.991 485.459 206.082 493.339 210.193 501.259C214.598 509.745 219.026 518.277 225.135 519.145C231.027 519.989 237.505 513.216 244.032 506.392C250.277 499.863 256.568 493.286 262.435 493.286C268.305 493.286 274.605 499.862 280.857 506.389C287.387 513.206 293.865 519.968 299.745 519.126C305.862 518.256 310.292 509.722 314.697 501.235C318.805 493.321 322.891 485.448 328.305 483.866C333.846 482.239 341.623 486.716 349.393 491.188C357.621 495.925 365.84 500.656 371.385 498.126C376.937 495.591 378.744 486.245 380.55 476.901C382.25 468.104 383.95 459.309 388.775 456.205C393.606 453.099 402.334 455.188 411.058 457.277C420.304 459.49 429.545 461.703 434.135 457.726C438.724 453.749 437.84 444.282 436.956 434.813C436.122 425.876 435.287 416.937 439.055 412.616C442.822 408.295 451.811 407.844 460.787 407.394C470.302 406.916 479.803 406.439 483.055 401.355C486.307 396.271 482.802 387.417 479.297 378.564C475.991 370.213 472.686 361.865 475.055 356.686C477.413 351.529 485.82 348.601 494.256 345.662C503.276 342.52 512.329 339.367 514.055 333.465C515.741 327.722 509.931 320.308 504.09 312.855C498.532 305.762 492.946 298.634 493.765 292.876C494.56 287.321 501.748 282.176 508.985 276.995C516.771 271.42 524.615 265.805 524.615 259.595C524.615 253.386 516.771 247.771 508.985 242.196C501.748 237.015 494.56 231.87 493.765 226.316C492.931 220.548 498.525 213.413 504.091 206.315C509.931 198.868 515.74 191.46 514.055 185.715C512.33 179.839 503.332 176.719 494.343 173.601C485.878 170.666 477.422 167.734 475.055 162.505C472.692 157.285 476.004 148.977 479.318 140.667C482.847 131.819 486.376 122.967 483.055 117.835C479.738 112.711 470.219 112.244 460.709 111.778C451.755 111.34 442.809 110.901 439.055 106.576C435.297 102.244 436.127 93.3062 436.956 84.3713C437.835 74.9049 438.714 65.4421 434.135 61.4655C429.55 57.4836 420.28 59.6977 411.015 61.9103C402.295 63.9929 393.581 66.0742 388.785 62.9855C383.983 59.8928 382.255 51.0718 380.528 42.2555C378.698 32.9133 376.869 23.5762 371.385 21.0655C365.915 18.5613 357.719 23.2646 349.493 27.9849C341.69 32.463 333.86 36.9564 328.305 35.3255C322.89 33.7521 318.802 25.8752 314.694 17.9571C310.289 9.46954 305.86 0.934659 299.745 0.065503C293.857 -0.777911 287.372 5.99777 280.84 12.8237C274.593 19.3516 268.301 25.9255 262.445 25.9255C256.59 25.9255 250.302 19.3541 244.058 12.8274C237.525 6.00021 231.04 -0.778064 225.145 0.065503C219.034 0.934827 214.604 9.46478 210.198 17.9504C206.088 25.8634 201.999 33.7379 196.585 35.3255C191.044 36.9524 183.267 32.4755 175.498 28.0032C167.269 23.2665 159.05 18.5349 153.505 21.0655C147.953 23.5996 146.146 32.9463 144.34 42.29C142.64 51.0873 140.94 59.8819 136.115 62.9855C131.285 66.0919 122.557 63.9988 113.833 61.9069C104.584 59.689 95.3404 57.4723 90.7551 61.4555C86.1714 65.4373 87.0554 74.9082 87.9394 84.3783C88.7737 93.3165 89.608 102.254 85.845 106.576C82.0828 110.896 73.096 111.347 64.1196 111.797C54.605 112.275 45.1021 112.752 41.845 117.835C38.5869 122.921 42.0949 131.779 45.6016 140.633C48.908 148.982 52.2132 157.327 49.845 162.505C47.4861 167.663 39.0755 170.592 30.6377 173.53C21.6196 176.67 12.5705 179.821 10.845 185.715C9.15924 191.464 14.9689 198.878 20.8095 206.331C26.3679 213.423 31.9542 220.552 31.135 226.316C30.3452 231.868 23.1609 237.008 15.9244 242.186ZM290.729 331.996V186.542H258.13L222.263 208.843V239.24L254.792 219.354H255.644V331.996H290.729Z" fill="#FCAB28"/>
<path fill-rule="evenodd" clip-rule="evenodd" d="M473.33 259.606C473.33 376.071 378.916 470.486 262.45 470.486C145.985 470.486 51.5703 376.071 51.5703 259.606C51.5703 143.14 145.985 48.7256 262.45 48.7256C378.916 48.7256 473.33 143.14 473.33 259.606ZM290.729 331.996V186.542H258.13L222.263 208.843V239.24L254.792 219.354H255.644V331.996H290.729Z" fill="#FFCE45"/>
<path fill-rule="evenodd" clip-rule="evenodd" d="M413.478 259.605C413.478 343.017 345.86 410.635 262.448 410.635C179.036 410.635 111.418 343.017 111.418 259.605C111.418 176.194 179.036 108.575 262.448 108.575C345.86 108.575 413.478 176.194 413.478 259.605ZM290.725 331.995V186.541H258.126L222.259 208.842V239.239L254.788 219.353H255.64V331.995H290.725Z" fill="#FFD733"/>
<path d="M262.421 474.754C212.645 474.749 164.411 457.485 125.936 425.903C87.4622 394.322 61.1289 350.377 51.423 301.556C41.7172 252.736 49.2396 202.06 72.7084 158.164C96.1773 114.267 134.14 79.8667 180.13 60.823C226.119 41.7792 277.288 39.2707 324.919 53.7249C372.551 68.1791 413.697 98.7017 441.346 140.092C468.996 181.482 481.439 231.179 476.555 280.715C471.671 330.251 449.762 376.561 414.561 411.754C394.628 431.795 370.918 447.682 344.803 458.496C318.688 469.31 290.687 474.836 262.421 474.754ZM262.421 53.0041C148.501 53.0041 55.8212 145.684 55.8212 259.604C55.8212 373.524 148.501 466.204 262.421 466.204C376.341 466.204 469.021 373.524 469.021 259.604C469.021 145.684 376.361 53.0041 262.421 53.0041Z" fill="#FCAB28"/>
<path d="M262.446 415.034C176.746 415.034 107.016 345.304 107.016 259.604C107.016 173.904 176.766 104.174 262.446 104.174C348.126 104.174 417.875 173.894 417.875 259.604C417.875 345.314 348.176 415.034 262.446 415.034ZM262.446 112.974C181.596 112.974 115.816 178.754 115.816 259.604C115.816 340.454 181.616 406.234 262.446 406.234C343.276 406.234 409.075 340.454 409.075 259.604C409.075 178.754 343.326 112.974 262.446 112.974Z" fill="#FCAB28"/>
</svg>
